<?xml version="1.0" encoding="UTF-8"?>
<svg width="752pt" height="752pt" version="1.1" viewBox="0 0 752 752" xmlns="http://www.w3.org/2000/svg">
 <g>
  <path d="m457.55 276.03-3.4102-94.195h-245.46v389.9h335.44v-294.61zm-131.04 151.55c-1.6914 3.8242-4.1992 7.2344-7.3398 9.9922-3.4922 2.9531-7.5078 5.2188-11.84 6.6797-5.1016 1.7578-10.469 2.6055-15.863 2.5078-6.7188-0.050781-13.375-1.3008-19.656-3.6953-4.957-1.8242-9.5938-4.4297-13.734-7.7188-0.92969-0.76953-1.5039-1.8906-1.5938-3.0938-0.089844-1.207 0.31641-2.3984 1.1211-3.2969l7.2461-8.7617c1.4492-1.793 4.043-2.1445 5.9219-0.80469 2.7109 1.9492 5.6133 3.6133 8.6641 4.9727 3.9922 1.8594 8.3359 2.8438 12.738 2.8867 3.6797 0.27344 7.3477-0.63672 10.469-2.6055 2.2305-1.6211 3.5117-4.25 3.4102-7.0078-0.023438-1.3203-0.40234-2.6133-1.0898-3.7422-0.71875-1.2031-1.7109-2.2227-2.8906-2.9805-1.4883-0.98828-3.0742-1.8125-4.7344-2.4648l-5.918-2.5117-12.93-5.4922c-2.625-1.0352-5.1211-2.3672-7.4375-3.9766-2.3789-1.6133-4.5273-3.543-6.3906-5.7305-2.0195-2.2383-3.625-4.8203-4.7383-7.625-1.1641-3.1367-1.7266-6.4609-1.6562-9.8047 0.125-4.0078 1.1445-7.9414 2.9844-11.508 1.7461-3.6406 4.2461-6.8711 7.3398-9.4688 3.3086-2.8008 7.1172-4.9531 11.223-6.3477 4.5703-1.5742 9.375-2.3594 14.207-2.3203 5.8789 0.023438 11.695 1.168 17.145 3.3633 4.1797 1.6445 8.0781 3.9297 11.555 6.7695 1.8164 1.6094 2.1211 4.3281 0.71094 6.3008l-6.1562 7.4336c-1.3984 1.7852-3.9336 2.1953-5.8242 0.94922-2.0508-1.3828-4.2227-2.5703-6.4883-3.5547-3.4414-1.3984-7.1289-2.0898-10.844-2.0352-3.332-0.23437-6.6484 0.59375-9.4727 2.3672-2.2227 1.4609-3.5156 3.9766-3.4102 6.6328-0.039062 1.3789 0.35938 2.7383 1.1367 3.8828 0.85938 1.1602 1.9375 2.1406 3.1719 2.8867 1.5078 0.94922 3.0938 1.7734 4.7383 2.4648l5.9688 2.5117 12.785 5.1602h-0.003906c5.5039 2.125 10.387 5.5938 14.211 10.086 3.6992 4.8516 5.5625 10.859 5.2539 16.953 0.18359 4.0273-0.49609 8.0469-1.9883 11.793zm58.535 14.207c-0.55078 1.8945-2.293 3.1875-4.2617 3.1719h-20.41c-1.9688 0-3.6992-1.2891-4.2656-3.1719l-27.465-90.738c-0.40625-1.3477-0.14844-2.8047 0.69141-3.9336 0.83984-1.1289 2.1641-1.7969 3.5703-1.7969h14.207c2.0352 0.003906 3.8125 1.3867 4.3086 3.3633l11.035 43.047c1.5156 5.4922 2.8398 10.797 4.0273 15.914 1.1836 5.1133 2.5117 10.465 4.0742 15.961h0.70703c1.4219-5.4922 2.7461-10.797 3.9766-15.961 1.2305-5.1602 2.5586-10.418 3.9766-15.914l10.988-43.047c0.5-1.9766 2.2734-3.3594 4.3125-3.3633h13.449c1.4062 0 2.7305 0.66797 3.5703 1.7969 0.83984 1.1289 1.0938 2.5859 0.69141 3.9336zm108.92-9.0469v0.003906c0.042969 1.2695-0.49609 2.4883-1.4648 3.3125-3.6914 3.0117-7.8516 5.3945-12.316 7.0586-6.0195 2.4062-12.457 3.5977-18.941 3.5039-6.5352 0.046875-13.027-1.0586-19.18-3.2695-5.7695-2.0391-11.043-5.2656-15.488-9.4727-4.5195-4.5273-8.0234-9.9688-10.273-15.957-5.0547-14.262-5.0547-29.828 0-44.09 2.2266-6.2422 5.7266-11.949 10.273-16.766 4.4883-4.4062 9.8438-7.8242 15.727-10.039 6.0234-2.4023 12.457-3.6094 18.941-3.5547 6.4453-0.17188 12.844 1.1914 18.66 3.9805 3.3555 1.6719 6.5312 3.6875 9.4688 6.0117 1.793 1.6562 1.918 4.4414 0.28516 6.2539l-6.2969 7.7188c-1.4531 1.8203-4.082 2.1758-5.9688 0.80469-1.5039-1.1367-3.0859-2.1641-4.7344-3.0781-3.3125-1.6211-6.9727-2.4023-10.656-2.2734-3.6523-0.058593-7.2734 0.6875-10.609 2.1797-3.3281 1.3945-6.3047 3.5117-8.7148 6.2031-2.4648 2.9609-4.3008 6.3945-5.3984 10.086-1.3633 4.3984-2.0195 8.9883-1.9414 13.594-0.49219 8.4609 1.9688 16.832 6.9648 23.68 5.2812 5.9531 13.043 9.0898 20.977 8.4766 2.0156 0.011719 4.0195-0.24609 5.9688-0.75781 1.7148-0.42578 3.3281-1.2031 4.7344-2.2734v-12.504c0-1.1797-0.46875-2.3125-1.3047-3.1484-0.83203-0.83203-1.9648-1.3008-3.1445-1.3008h-7.625c-2.4414-0.027344-4.4062-2.0117-4.4062-4.4531v-9.4727c0-2.4375 1.9648-4.4258 4.4062-4.4492h27.469-0.003906c2.4414 0.023437 4.4062 2.0117 4.4062 4.4492z"/>
  <path d="m551.23 259.21-76.152-83.301c-7.5703-8.293-18.277-13.02-29.504-13.023h-215.29c-10.598 0.011719-20.758 4.2266-28.25 11.719-7.4922 7.4961-11.707 17.652-11.723 28.25v346.29c0.015625 10.594 4.2305 20.754 11.723 28.246 7.4922 7.4961 17.652 11.711 28.25 11.723h291.44c10.598-0.011719 20.754-4.2266 28.25-11.723 7.4922-7.4922 11.707-17.652 11.719-28.246v-263.12c-0.019531-9.9258-3.7539-19.488-10.465-26.805zm-25.242 11.887h-49.062c-3.5586-0.011718-6.9648-1.4414-9.4648-3.9766-2.4961-2.5352-3.8828-5.9609-3.8438-9.5195v-54.746zm-4.2617 291.39h-291.44c-7.375 0-13.355-5.9766-13.355-13.352v-346.29c0-7.375 5.9805-13.355 13.355-13.355h206.67v68.102c0.011719 10.598 4.2266 20.758 11.719 28.25 7.4922 7.4922 17.652 11.707 28.25 11.723h58.156v251.57c-0.027344 7.3633-5.9922 13.328-13.355 13.352z"/>
 </g>
</svg>
